<?xml version="1.0" encoding="UTF-8"?>
<svg id="logo-gliffy-reg" xmlns="http://www.w3.org/2000/svg" version="1.1" viewBox="0 0 518.9 177.8">
  <!-- Generator: Adobe Illustrator 29.3.1, SVG Export Plug-In . SVG Version: 2.1.0 Build 151)  -->
  <defs>
    <style>
      .st0 {
        fill: #4c00ff;
      }

      .st1 {
        fill: #00003a;
      }
    </style>
  </defs>
  <g id="logo-helixiplm-reg">
    <g>
      <g>
        <path class="st1" d="M157.3,70.4h27.7c11.4,0,19.9,2.2,25.6,6.5,5.6,4.4,8.4,11,8.4,19.8s-1.3,10.8-3.9,14.8c-2.6,4-6.5,7-11.6,9-5.1,2-11.5,3-19.1,3h-11.4v28.9h-15.6v-82ZM195.2,109.5c2.7-1,4.7-2.5,6-4.6,1.3-2.1,1.9-4.8,1.9-8.2,0-4.9-1.4-8.5-4.3-10.6-2.9-2.1-7.7-3.2-14.3-3.2h-11.5v28.3h11.3c4.5,0,8.2-.6,10.9-1.6Z"/>
        <path class="st1" d="M259.2,134.1h-40.2v-15.1l35.4-48.7h19.5l-40.6,51.1h26.1v-17.4l15-18.1v35.5h12.7v12.6h-12.7v18.3h-15.1v-18.3Z"/>
      </g>
      <g>
        <path class="st1" d="M333.2,148.5c-6.1-3.6-10.9-8.6-14.2-15.1-3.4-6.5-5-13.9-5-22.2s1.7-15.7,5.2-22.2c3.4-6.5,8.3-11.5,14.5-15.1,6.2-3.6,13.4-5.4,21.5-5.4s15,1.8,21.1,5.4c6.1,3.6,10.9,8.6,14.2,15.1,3.4,6.5,5,13.9,5,22.2s-1.7,15.7-5.1,22.2-8.2,11.5-14.5,15.1c-6.3,3.6-13.4,5.4-21.5,5.4s-15-1.8-21.1-5.4ZM367.6,136.9c3.6-2.3,6.5-5.6,8.4-9.9,2-4.3,3-9.5,3-15.5v-.7c0-5.9-1-10.9-2.9-15.3-1.9-4.3-4.7-7.6-8.3-9.9-3.6-2.3-7.9-3.4-13-3.4s-9.3,1.1-13,3.4c-3.7,2.3-6.5,5.5-8.4,9.8-1.9,4.3-2.9,9.4-2.9,15.5v.5c0,6,1,11.2,2.9,15.5,1.9,4.3,4.7,7.6,8.3,10,3.6,2.3,7.9,3.5,13,3.5s9.4-1.1,13-3.4Z"/>
        <path class="st1" d="M402.3,93.9h15.3v9.4c1.6-3.5,3.8-6.1,6.7-7.9,2.9-1.8,6.4-2.7,10.4-2.7,6.5,0,11.5,2.1,15,6.3,3.6,4.2,5.3,10.3,5.3,18.2v35.1h-15.3v-34.1c0-4.1-.9-7.2-2.5-9.3-1.7-2.1-4.3-3.2-7.8-3.2s-6.8,1.5-8.9,4.4c-2.1,2.9-3.2,7.1-3.2,12.6v29.7h-15.2v-58.4Z"/>
        <path class="st1" d="M475.4,149.7c-4.4-2.4-7.9-5.8-10.3-10.4-2.4-4.5-3.7-9.8-3.7-15.8s1.3-11.3,3.8-16c2.5-4.6,6-8.2,10.4-10.8,4.4-2.6,9.5-3.9,15.1-3.9,8.9,0,15.8,2.7,20.8,8.1,5,5.4,7.5,12.8,7.5,22.1v5.1h-42.6c.5,4.3,2,7.6,4.7,9.9,2.6,2.3,6,3.5,10.2,3.5s7.2-.8,9.4-2.5,3.9-3.9,5-6.7l13.3,4.7c-2.2,5-5.6,9-10.2,11.9-4.6,2.9-10.4,4.4-17.6,4.4s-11.4-1.2-15.8-3.6ZM499.8,107.9c-2.2-2.1-5.4-3.2-9.4-3.2s-6.9,1.1-9.4,3.4c-2.5,2.3-4.1,5.4-4.8,9.5h27.3c-.2-4.3-1.5-7.5-3.7-9.6Z"/>
      </g>
    </g>
    <g>
      <path class="st1" d="M189.8,34.8c-1.8-1-3.2-2.5-4.3-4.4-1-1.9-1.5-4.1-1.5-6.6s.5-4.7,1.6-6.7c1-1.9,2.5-3.5,4.3-4.5s3.9-1.6,6.2-1.6c3.6,0,6.5,1.1,8.5,3.4,2.1,2.2,3.1,5.3,3.1,9.2v1.7c0,0,0,.1-.1.1h-18.3c0,0-.2,0-.1.2.2,2,.9,3.7,2.1,4.9,1.3,1.2,2.9,1.8,5.1,1.8s3.5-.4,4.5-1.2c1-.8,1.8-1.8,2.4-3.1,0,0,.1-.1.2,0l4.2,1.6c0,0,.1.1,0,.2-.9,2-2.3,3.6-4.1,4.8-1.9,1.2-4.3,1.9-7.3,1.9s-4.7-.5-6.5-1.5h0ZM200.7,16.7c-1.1-1.1-2.7-1.7-4.6-1.7s-3.5.6-4.7,1.7c-1.2,1.1-2,2.7-2.3,4.6,0,0,0,.2.1.2h13.2c0,0,.2,0,.1-.2-.1-2-.7-3.6-1.8-4.7Z"/>
      <path class="st1" d="M211.2,11.3h4.8c0,0,.1,0,.1.1v3.5c0,.2.2.2.3,0,.4-1.1,1.1-2,2-2.7,1.1-.9,2.8-1.3,5-1.3h.6c0,0,.1,0,.1.1v4.7c0,0,0,.1-.1.1h-2.2c-2.2,0-3.6.6-4.4,1.7-.8,1.1-1.2,3-1.2,5.6v12.4c0,0,0,.1-.1.1h-4.8c0,0-.1,0-.1-.1V11.5c0,0,0-.1.1-.1h0Z"/>
      <path class="st1" d="M236.4,6.6c.2-.5.5-.8.9-1,.5-.1,1.3-.2,2.5-.2h3.9c0,0,.1,0,.1-.1V.9c0,0,0-.1-.1-.1h-6c-1.7.1-3,.4-3.9,1-.9.6-1.6,1.4-2,2.5-.4,1.1-.6,2.6-.6,4.5v2.5c0,0,0,.1-.1.1h-4v4.3h4c0,0,.1,0,.1.1v20c0,0,0,.1.1.1h4.6c0,0,.1,0,.1-.1V15.8c0,0,0-.1.1-.1h4.8c0,0,.1,0,.1-.1v-4c0,0,0-.1-.1-.1h-4.7c0,0-.1,0-.1-.1v-2c0-1.2,0-2.1.2-2.6Z"/>
      <path class="st1" d="M248.1,34.7c-1.9-1.1-3.3-2.6-4.4-4.5-1-1.9-1.6-4.1-1.6-6.6s.5-4.7,1.6-6.6c1.1-1.9,2.5-3.4,4.4-4.5s4-1.6,6.4-1.6,4.5.5,6.4,1.6c1.9,1.1,3.3,2.6,4.4,4.5,1,1.9,1.6,4.1,1.6,6.6s-.5,4.6-1.6,6.5c-1.1,1.9-2.5,3.5-4.4,4.5-1.9,1.1-4,1.6-6.4,1.6s-4.5-.5-6.3-1.6h0ZM259.8,29.8c1.3-1.5,1.9-3.5,1.9-6v-.2c0-2.6-.6-4.7-1.9-6.2-1.3-1.5-3-2.3-5.3-2.3s-4,.8-5.3,2.3c-1.3,1.5-2,3.6-2,6.2v.2c0,2.5.6,4.5,1.9,6,1.3,1.5,3,2.2,5.3,2.2s4-.7,5.3-2.2h0Z"/>
      <path class="st1" d="M269.8,11.3h4.8c0,0,.1,0,.1.1v3.5c0,.2.2.2.3,0,.4-1.1,1.1-2,2-2.7,1.1-.9,2.8-1.3,5-1.3h.6c0,0,.1,0,.1.1v4.7c0,0,0,.1-.1.1h-2.2c-2.2,0-3.6.6-4.4,1.7-.8,1.1-1.2,3-1.2,5.6v12.4c0,0,0,.1-.1.1h-4.8c0,0-.1,0-.1-.1V11.5c0,0,0-.1.1-.1Z"/>
      <path class="st1" d="M289.2,34.7c-1.8-1.1-3.2-2.6-4.2-4.5-1-1.9-1.5-4.1-1.5-6.6s.5-4.6,1.5-6.5c1-1.9,2.5-3.4,4.3-4.5,1.9-1.1,4-1.6,6.3-1.6s5.1.7,7,2.1c1.8,1.4,3.1,3.2,4,5.6,0,0,0,.2,0,.2l-4.6,1.5c0,0-.2,0-.2,0-.5-1.6-1.2-2.8-2.1-3.7s-2.3-1.3-4.1-1.3-3.8.8-5.1,2.3c-1.3,1.5-1.9,3.5-1.9,6v.2c0,2.5.6,4.5,1.8,6,1.2,1.5,2.9,2.3,5,2.3s3.4-.5,4.4-1.4c1-.9,1.7-2.2,2.2-3.9,0,0,.1-.1.2,0l4.5,1.4c0,0,.1.1,0,.2-.9,2.5-2.2,4.5-4.1,5.9-1.9,1.4-4.3,2.1-7.2,2.1s-4.5-.5-6.3-1.6h0Z"/>
      <path class="st1" d="M314.7,34.8c-1.8-1-3.2-2.5-4.3-4.4-1-1.9-1.5-4.1-1.5-6.6s.5-4.7,1.6-6.7c1-1.9,2.5-3.5,4.3-4.5s3.9-1.6,6.2-1.6c3.6,0,6.5,1.1,8.5,3.4,2.1,2.2,3.1,5.3,3.1,9.2v1.7c0,0,0,.1-.1.1h-18.3c0,0-.2,0-.1.2.2,2,.9,3.7,2.1,4.9,1.3,1.2,2.9,1.8,5.1,1.8s3.5-.4,4.5-1.2c1-.8,1.8-1.8,2.4-3.1,0,0,.1-.1.2,0l4.2,1.6c0,0,.1.1,0,.2-.9,2-2.3,3.6-4.1,4.8-1.9,1.2-4.3,1.9-7.3,1.9s-4.7-.5-6.5-1.5h0ZM325.6,16.7c-1.1-1.1-2.7-1.7-4.6-1.7s-3.5.6-4.7,1.7c-1.2,1.1-2,2.7-2.3,4.6,0,0,0,.2.1.2h13.2c0,0,.2,0,.1-.2-.1-2-.7-3.6-1.8-4.7Z"/>
      <path class="st1" d="M180,16.7c-1-1.9-2.3-3.4-4-4.4-1.7-1-3.6-1.5-5.7-1.5s-3.2.4-4.6,1.1c-1.2.7-2.3,1.6-3.1,2.7,0,.1-.3,0-.3,0v-3c0,0,0-.1-.1-.1h-4.7c0,0-.1,0-.1.1v33.9c0,0,0,.1.1.1h4.7c0,0,.1,0,.1-.1v-8.9c0,0,0-.1.1-.1h7.7c2.1,0,4-.5,5.8-1.6,1.7-1.1,3-2.6,4-4.5,1-2,1.4-4.2,1.4-6.8h0c0-2.6-.5-4.9-1.4-6.8h0ZM176.1,23.7c0,2.6-.6,4.7-1.9,6.2-1.3,1.5-3,2.2-5.1,2.2h-6.6c0,0-.1,0-.1-.1v-11c.3-1.3.8-2.5,1.6-3.5,1.3-1.5,3-2.3,5.1-2.3s3.9.7,5.2,2.1c1.3,1.4,1.9,3.4,1.9,6v.4h0Z"/>
    </g>
  </g>
  <path class="st0" d="M118.8,164.1V58.9c0-7.1-4.8-10.6-6.8-11.8s-7.5-3.6-13.7,0l-1.1.6L31,85.8h0s-2.1,1.2-2.1,1.2l-.4.2-21.7,12.5C.7,103.3,0,109.1,0,111.5c0,2.4.7,8.3,6.8,11.8l48.5,28.2c.2-.5.4-.9.6-1.3l10.6-18.3-26.6-15.6c-3.1-1.8-4.4-5.3-3.4-8.6.2-2.4,1.5-4.6,3.7-5.9l47.5-27.3c2.6-1.5,5.6-1.3,7.9.3,2.5,1.2,4.2,3.7,4.2,6.7v3.2s-14.9,8.6-14.9,8.6h0s-27.6,15.8-27.6,15.8l27.6,15.9v-15.3s14.9-8.6,14.9-8.6v35.7c0,1.5-.5,3-1.3,4.2,0,.1-.1.2-.2.3-2.1,3.6-6.6,4.8-10.2,2.7l-8.8-4.7-10.6,18.3c-.2.4-.5.8-.8,1.2l30.3,17.1c6.2,3.6,11.6,1.2,13.7,0,2.1-1.2,6.8-4.7,6.8-11.8Z"/>
</svg>