<svg class="svg-banner" xmlns="http://www.w3.org/2000/svg" viewBox="0 0 1600 440" fill="none" aria-hidden="true">
  <defs>
    <linearGradient id="gameplay-bg" x1="0" y1="0" x2="1600" y2="440" gradientUnits="userSpaceOnUse">
      <stop stop-color="#0c1426" stop-opacity="0.8"/>
      <stop offset="1" stop-color="#111d35" stop-opacity="0.56"/>
    </linearGradient>
    <linearGradient id="gameplay-ring" x1="560" y1="110" x2="1030" y2="332" gradientUnits="userSpaceOnUse">
      <stop stop-color="#7aa7ff" stop-opacity="0.76"/>
      <stop offset="1" stop-color="#9a8ff2" stop-opacity="0.7"/>
    </linearGradient>
  </defs>
  <rect x="80" y="46" width="1440" height="348" rx="52" fill="url(#gameplay-bg)"/>
  <g stroke="url(#gameplay-ring)" stroke-width="4" stroke-linecap="round" stroke-linejoin="round">
    <circle cx="800" cy="220" r="116" class="rotate-slow"/>
    <circle cx="800" cy="220" r="74" stroke-opacity="0.8"/>
    <path class="flow" d="M684 220A116 116 0 0 0 800 336"/>
    <path class="flow" d="M916 220A116 116 0 0 0 800 104"/>
    <path class="flow" d="M740 160C770 140 830 140 860 160"/>
    <path class="flow" d="M740 280C770 300 830 300 860 280"/>
  </g>
  <g>
    <circle class="glow" cx="800" cy="220" r="58" fill="#8a7adf" opacity="0.18"/>
    <circle class="pulse" cx="800" cy="220" r="20" fill="#85b7ff"/>
    <circle cx="800" cy="104" r="12" fill="#9a8ff2"/>
    <circle cx="916" cy="220" r="12" fill="#7aa7ff"/>
    <circle cx="800" cy="336" r="12" fill="#9a8ff2"/>
    <circle cx="684" cy="220" r="12" fill="#7aa7ff"/>
  </g>
</svg>
