<svg xmlns="http://www.w3.org/2000/svg" viewBox="0 0 120 178" role="img" aria-label="Perforce icon">
  <path fill="#6d5dfc" d="M118.8 164.1V58.9c0-7.1-4.8-10.6-6.8-11.8s-7.5-3.6-13.7 0l-1.1.6L31 85.8h0l-2.1 1.2-.4.2-21.7 12.5C.7 103.3 0 109.1 0 111.5c0 2.4.7 8.3 6.8 11.8l48.5 28.2c.2-.5.4-.9.6-1.3l10.6-18.3-26.6-15.6c-3.1-1.8-4.4-5.3-3.4-8.6.2-2.4 1.5-4.6 3.7-5.9l47.5-27.3c2.6-1.5 5.6-1.3 7.9.3 2.5 1.2 4.2 3.7 4.2 6.7v3.2l-14.9 8.6h0l-27.6 15.8 27.6 15.9v-15.3l14.9-8.6v35.7c0 1.5-.5 3-1.3 4.2 0 .1-.1.2-.2.3-2.1 3.6-6.6 4.8-10.2 2.7l-8.8-4.7-10.6 18.3c-.2.4-.5.8-.8 1.2l30.3 17.1c6.2 3.6 11.6 1.2 13.7 0 2.1-1.2 6.8-4.7 6.8-11.8Z"/>
</svg>
