<svg class="svg-banner" xmlns="http://www.w3.org/2000/svg" viewBox="0 0 1600 440" fill="none" aria-hidden="true">
  <defs>
    <linearGradient id="packages-bg" x1="0" y1="0" x2="1600" y2="440" gradientUnits="userSpaceOnUse">
      <stop stop-color="#0b1220" stop-opacity="0.8"/>
      <stop offset="1" stop-color="#121c34" stop-opacity="0.58"/>
    </linearGradient>
    <linearGradient id="packages-link" x1="460" y1="120" x2="1150" y2="320" gradientUnits="userSpaceOnUse">
      <stop stop-color="#7aa7ff" stop-opacity="0.72"/>
      <stop offset="1" stop-color="#8a7adf" stop-opacity="0.7"/>
    </linearGradient>
  </defs>
  <rect x="80" y="46" width="1440" height="348" rx="52" fill="url(#packages-bg)"/>
  <g stroke="url(#packages-link)" stroke-width="4" stroke-linecap="round" stroke-linejoin="round">
    <path class="flow" d="M560 160H760"/>
    <path class="flow" d="M840 160H1040"/>
    <path class="flow" d="M660 260H860"/>
    <path class="flow" d="M940 260H1140"/>
    <path class="flow" d="M760 160V260"/>
    <path class="flow" d="M1040 160V260"/>
  </g>
  <g>
    <rect x="470" y="126" width="180" height="68" rx="20" fill="#7aa7ff" fill-opacity="0.14" stroke="#7aa7ff" stroke-width="4"/>
    <rect x="750" y="126" width="180" height="68" rx="20" fill="#8a7adf" fill-opacity="0.14" stroke="#8a7adf" stroke-width="4"/>
    <rect x="1030" y="126" width="180" height="68" rx="20" fill="#7aa7ff" fill-opacity="0.12" stroke="#7aa7ff" stroke-width="4"/>
    <rect x="570" y="226" width="180" height="68" rx="20" fill="#8a7adf" fill-opacity="0.12" stroke="#8a7adf" stroke-width="4"/>
    <rect x="850" y="226" width="180" height="68" rx="20" fill="#7fd8b7" fill-opacity="0.1" stroke="#7fd8b7" stroke-width="4"/>
    <rect x="1130" y="226" width="180" height="68" rx="20" fill="#8a7adf" fill-opacity="0.12" stroke="#8a7adf" stroke-width="4"/>
    <circle class="pulse" cx="850" cy="220" r="14" fill="#85b7ff"/>
    <circle class="glow" cx="850" cy="220" r="44" fill="#85b7ff" opacity="0.14"/>
  </g>
</svg>
