<svg xmlns="http://www.w3.org/2000/svg" viewBox="0 0 256 256" role="img" aria-label="Java icon">
  <path fill="#5382A1" d="M118 196c-53 0-96-12-96-28s43-28 96-28 96 12 96 28-43 28-96 28Zm0-41c-47 0-82 8-82 13s35 13 82 13 82-8 82-13-35-13-82-13Z"/>
  <path fill="#5382A1" d="M118 220c-36 0-74-6-91-17a7 7 0 0 1 7-12c14 9 48 15 84 15 38 0 73-6 87-16a7 7 0 0 1 7 12c-18 11-57 18-94 18Z"/>
  <path fill="#EA2D2E" d="M129 116c0 24-42 19-42 40 0 10 10 18 31 22a7 7 0 0 1-3 14c-28-5-42-18-42-36 0-28 42-25 42-40 0-5-6-11-18-18a7 7 0 1 1 7-12c17 9 25 19 25 30Zm22-33c0 23-38 18-38 37a7 7 0 1 1-14 0c0-30 38-25 38-37 0-6-6-13-17-20a7 7 0 1 1 7-11c16 10 24 20 24 31Zm27-28c0 22-34 18-34 34a7 7 0 0 1-14 0c0-29 34-24 34-34 0-5-5-10-15-16a7 7 0 1 1 7-12c15 9 22 18 22 28Z"/>
</svg>
