<svg class="svg-banner" xmlns="http://www.w3.org/2000/svg" viewBox="0 0 1600 440" fill="none" aria-hidden="true">
  <defs>
    <linearGradient id="lead-bg" x1="0" y1="0" x2="1600" y2="440" gradientUnits="userSpaceOnUse">
      <stop stop-color="#0b1324" stop-opacity="0.8"/>
      <stop offset="1" stop-color="#121c33" stop-opacity="0.58"/>
    </linearGradient>
    <linearGradient id="lead-link" x1="360" y1="245" x2="1240" y2="245" gradientUnits="userSpaceOnUse">
      <stop stop-color="#7aa7ff" stop-opacity="0.72"/>
      <stop offset="1" stop-color="#9a8ff2" stop-opacity="0.7"/>
    </linearGradient>
  </defs>
  <rect x="80" y="46" width="1440" height="348" rx="52" fill="url(#lead-bg)"/>
  <g stroke="url(#lead-link)" stroke-width="4.5" stroke-linecap="round" stroke-linejoin="round" fill="none">
    <path d="M360 286H1240"/>
    <path class="flow" d="M800 196V286"/>
    <path class="flow" d="M800 196C720 176 658 160 600 132"/>
    <path class="flow" d="M800 196C880 176 942 160 1000 132"/>
    <path class="flow" d="M800 196C690 214 600 220 500 220"/>
    <path class="flow" d="M800 196C910 214 1000 220 1100 220"/>
  </g>
  <g>
    <circle class="glow" cx="800" cy="196" r="56" fill="#8a7adf" opacity="0.16"/>
    <circle class="pulse" cx="800" cy="196" r="20" fill="#85b7ff"/>
    <circle cx="600" cy="132" r="13" fill="#7aa7ff"/>
    <circle cx="1000" cy="132" r="13" fill="#7aa7ff"/>
    <circle cx="500" cy="220" r="13" fill="#9a8ff2"/>
    <circle cx="1100" cy="220" r="13" fill="#9a8ff2"/>
    <circle cx="520" cy="286" r="9" fill="#7fd8b7" fill-opacity="0.74"/>
    <circle cx="760" cy="286" r="9" fill="#7fd8b7" fill-opacity="0.74"/>
    <circle cx="980" cy="286" r="9" fill="#7fd8b7" fill-opacity="0.74"/>
    <circle cx="1240" cy="286" r="9" fill="#7fd8b7" fill-opacity="0.74"/>
  </g>
</svg>
